<?xml version="1.0" standalone="no"?>
<!DOCTYPE svg PUBLIC "-//W3C//DTD SVG 20010904//EN"
 "http://www.w3.org/TR/2001/REC-SVG-20010904/DTD/svg10.dtd">
<svg version="1.0" xmlns="http://www.w3.org/2000/svg"
  width="97" height="40" viewBox="0 0 1067.000000 432.000000"
 preserveAspectRatio="xMidYMid meet">

<g transform="translate(0.000000,432.000000) scale(0.100000,-0.100000)"
fill="#000000" stroke="none">
<path d="M490 4242 c-156 -41 -274 -161 -324 -331 -14 -49 -16 -189 -16 -1293
l0 -1238 4948 2 4947 3 72 34 c79 37 159 111 206 191 59 102 57 49 57 1407 l0
1243 -4912 -1 c-4590 0 -4917 -1 -4978 -17z m9845 -1267 l0 -1240 -36 -75
c-43 -90 -120 -168 -206 -208 l-58 -27 -4922 -3 -4923 -2 0 1199 c0 763 4
1218 10 1251 31 164 170 309 323 340 23 4 2240 7 4927 6 l4885 -1 0 -1240z"/>
<path d="M2980 3910 c-1353 -3 -2333 -9 -2345 -14 -47 -21 -104 -79 -131 -132
l-29 -57 0 -996 0 -996 4695 -2 c4276 -3 4699 -2 4743 13 31 10 65 33 97 65
90 90 85 22 85 1144 l0 980 -2395 0 c-1317 0 -3441 -2 -4720 -5z m2505 -203
c79 -23 190 -73 242 -108 181 -122 298 -275 370 -486 l38 -108 0 -190 0 -190
-37 -108 c-21 -60 -50 -129 -65 -155 -133 -233 -328 -385 -559 -437 -95 -22
-272 -24 -359 -6 -319 69 -583 333 -667 667 -19 73 -23 115 -22 234 0 125 4
158 27 243 55 200 166 366 327 492 54 41 170 105 220 120 14 4 39 13 55 21 17
7 53 18 80 23 67 14 288 6 350 -12z m-2165 -339 c19 -32 20 -52 20 -468 0
-413 -1 -437 -19 -467 -35 -57 -116 -48 -147 16 l-19 39 -48 -38 c-95 -76
-221 -75 -318 2 -39 31 -59 57 -87 116 -37 76 -37 78 -37 207 0 123 1 133 29
190 59 120 135 169 261 168 76 0 127 -17 171 -55 l34 -30 0 136 c0 107 4 144
16 169 22 42 31 47 82 47 37 0 45 -4 62 -32z m-1319 -7 c12 -15 19 -39 19 -67
0 -39 -4 -47 -32 -64 -28 -17 -51 -20 -145 -20 l-113 0 0 -371 c0 -331 -2
-374 -17 -400 -19 -33 -55 -48 -98 -42 -35 5 -52 17 -71 54 -11 23 -14 96 -14
393 l0 364 -119 4 c-110 3 -121 5 -145 27 -42 40 -32 121 17 141 12 5 174 8
360 7 l339 -2 19 -24z m4950 2 c16 -9 40 -40 54 -68 27 -54 276 -707 293 -768
19 -69 -21 -127 -87 -127 -46 0 -69 28 -110 135 l-37 100 -177 3 c-162 2 -178
1 -184 -15 -32 -91 -73 -188 -86 -204 -24 -27 -79 -25 -114 5 -23 20 -28 32
-27 68 2 57 283 810 316 845 42 46 108 56 159 26z m1177 -17 c35 -12 52 -63
52 -161 l0 -85 43 0 c54 0 87 -22 87 -58 0 -47 -33 -72 -94 -72 l-36 0 0 -196
c0 -120 4 -203 11 -215 9 -18 17 -20 73 -14 74 8 96 -6 96 -60 0 -27 -7 -39
-32 -57 -29 -20 -45 -23 -130 -23 -111 0 -139 13 -173 81 -17 35 -20 64 -23
262 l-4 222 -24 0 c-31 0 -64 33 -64 65 0 32 33 65 65 65 25 0 25 2 25 78 0
151 36 198 128 168z m-5744 -232 c98 -33 181 -144 204 -274 33 -184 -67 -380
-219 -428 -92 -30 -222 -19 -296 25 -50 29 -105 88 -133 142 -41 82 -47 259
-11 353 25 66 91 137 159 172 73 38 200 42 296 10z m1529 0 c62 -21 135 -92
173 -169 27 -56 29 -67 29 -180 0 -110 -2 -124 -27 -175 -41 -83 -82 -126
-153 -161 -57 -28 -76 -32 -148 -32 -106 -1 -155 14 -220 67 -66 54 -92 93
-117 176 -28 92 -26 173 6 271 41 126 122 197 254 223 42 8 153 -3 203 -20z
m3624 -16 c11 -13 24 -33 27 -45 6 -20 9 -19 45 19 32 35 45 41 87 45 40 4 60
0 101 -20 53 -28 63 -41 63 -88 0 -44 -34 -72 -78 -65 -120 19 -116 19 -149
-8 -43 -36 -53 -88 -53 -268 -1 -172 -9 -225 -41 -250 -32 -27 -81 -23 -110 8
l-24 26 -3 286 c-2 158 -1 296 2 308 18 69 91 98 133 52z m1316 -7 c99 -48
157 -134 165 -243 9 -125 -18 -138 -275 -138 l-173 0 0 -30 c0 -40 32 -102 66
-129 65 -51 143 -37 233 44 66 59 83 64 120 39 20 -14 23 -23 18 -61 -6 -54
-47 -102 -122 -141 -45 -24 -61 -27 -155 -27 -92 0 -112 3 -160 26 -69 33
-115 79 -149 149 -24 50 -26 66 -26 180 0 143 13 185 81 259 66 74 136 101
249 98 61 -2 92 -8 128 -26z m698 -3 c100 -46 142 -136 87 -188 -39 -36 -74
-27 -133 38 l-54 57 -59 0 c-66 0 -102 -21 -102 -60 0 -36 40 -62 136 -89 213
-60 268 -107 266 -228 -2 -140 -104 -218 -286 -218 -91 0 -147 15 -209 56 -41
27 -76 90 -77 135 0 64 91 95 127 43 10 -15 35 -45 55 -68 36 -41 37 -41 108
-41 66 0 74 2 96 28 50 58 17 104 -97 137 -112 32 -152 48 -195 76 -54 36 -76
69 -82 124 -8 86 28 154 101 192 67 34 87 38 177 35 66 -2 97 -9 141 -29z"/>
<path d="M4885 3139 c-116 -11 -199 -69 -252 -176 -26 -55 -28 -65 -28 -188 0
-113 3 -136 22 -178 37 -80 78 -123 151 -159 62 -31 74 -33 167 -33 83 0 109
4 152 24 58 26 129 95 139 137 11 45 -6 79 -44 82 -27 3 -42 -5 -84 -43 -69
-62 -103 -79 -164 -79 -41 0 -59 5 -88 27 -44 34 -76 94 -76 142 l0 35 200 0
c206 0 236 5 259 42 18 29 15 117 -5 169 -57 146 -178 215 -349 198z m136
-154 c26 -24 58 -91 59 -122 0 -23 -1 -23 -150 -23 -149 0 -150 0 -150 23 1
35 35 102 66 126 25 20 38 22 91 19 43 -3 69 -10 84 -23z"/>
<path d="M5351 3121 c-30 -30 -32 -63 -29 -371 3 -253 5 -289 21 -313 35 -54
110 -47 139 13 15 30 18 64 18 225 0 207 8 243 63 293 30 29 96 39 136 22 54
-22 61 -55 61 -277 0 -109 5 -216 10 -238 17 -73 83 -98 137 -51 l28 24 0 269
0 268 -28 48 c-40 68 -93 100 -174 105 -84 6 -144 -12 -197 -59 l-43 -38 -12
39 c-6 22 -20 44 -31 50 -30 16 -78 12 -99 -9z"/>
<path d="M2933 2970 c-83 -50 -116 -222 -62 -325 61 -119 188 -127 253 -16 29
51 34 179 9 251 -33 95 -125 136 -200 90z"/>
<path d="M6875 3133 c-9 -24 -115 -334 -115 -339 0 -2 56 -4 125 -4 69 0 125
1 125 3 0 7 -120 350 -124 354 -2 2 -7 -4 -11 -14z"/>
<path d="M2173 2969 c-18 -11 -43 -43 -57 -72 -45 -90 -33 -236 26 -308 22
-27 55 -39 105 -39 105 0 152 66 153 211 0 47 -5 101 -11 120 -32 94 -138 138
-216 88z"/>
<path d="M3696 2964 c-47 -32 -66 -77 -73 -169 -8 -97 14 -172 62 -214 30 -26
44 -31 86 -31 67 0 103 20 136 77 25 42 28 57 27 138 0 77 -3 96 -24 135 -50
89 -138 116 -214 64z"/>
<path d="M8642 2970 c-34 -21 -71 -87 -72 -127 0 -23 1 -23 140 -23 l140 0 0
30 c0 104 -122 174 -208 120z"/>
</g>
</svg>
